<?xml version="1.0" encoding="UTF-8"?>
<svg xmlns="http://www.w3.org/2000/svg" xmlns:xlink="http://www.w3.org/1999/xlink" width="375pt" height="374.999991pt" viewBox="0 0 375 374.999991" version="1.2">
<defs>
<clipPath id="clip1">
  <path d="M 11.523438 4.539062 L 361 4.539062 L 361 365 L 11.523438 365 Z M 11.523438 4.539062 "/>
</clipPath>
</defs>
<g id="surface1">
<g clip-path="url(#clip1)" clip-rule="nonzero">
<path style=" stroke:none;fill-rule:evenodd;fill:rgb(100%,17.649841%,12.548828%);fill-opacity:1;" d="M 360.394531 85.949219 C 360.523438 86.433594 360.589844 86.921875 360.589844 87.421875 L 360.589844 164.664062 C 360.589844 165.671875 360.339844 166.613281 359.832031 167.488281 C 359.328125 168.359375 358.640625 169.046875 357.765625 169.550781 L 293.035156 206.875 L 293.035156 280.859375 C 293.035156 282.875 291.96875 284.734375 290.226562 285.746094 L 155.109375 363.652344 C 154.796875 363.828125 154.460938 363.941406 154.125 364.058594 C 153.996094 364.101562 153.878906 364.179688 153.746094 364.214844 C 152.785156 364.46875 151.824219 364.46875 150.863281 364.214844 C 150.707031 364.171875 150.566406 364.089844 150.417969 364.03125 C 150.109375 363.917969 149.785156 363.820312 149.492188 363.652344 L 14.402344 285.746094 C 13.53125 285.242188 12.839844 284.554688 12.335938 283.683594 C 11.832031 282.808594 11.578125 281.871094 11.578125 280.859375 L 11.578125 49.128906 C 11.578125 48.625 11.648438 48.132812 11.773438 47.652344 C 11.816406 47.492188 11.914062 47.34375 11.972656 47.179688 C 12.078125 46.886719 12.175781 46.582031 12.328125 46.308594 C 12.433594 46.125 12.589844 45.976562 12.714844 45.808594 C 12.878906 45.582031 13.023438 45.351562 13.214844 45.152344 C 13.375 44.992188 13.585938 44.871094 13.769531 44.730469 C 13.972656 44.5625 14.15625 44.378906 14.390625 44.246094 L 14.394531 44.246094 L 81.945312 5.292969 C 82.8125 4.789062 83.75 4.539062 84.753906 4.539062 C 85.757812 4.539062 86.695312 4.789062 87.566406 5.292969 L 155.113281 44.246094 L 155.128906 44.246094 C 155.355469 44.386719 155.542969 44.5625 155.746094 44.722656 C 155.929688 44.863281 156.132812 44.992188 156.296875 45.144531 C 156.492188 45.351562 156.632812 45.582031 156.800781 45.808594 C 156.921875 45.976562 157.082031 46.125 157.179688 46.308594 C 157.34375 46.589844 157.433594 46.886719 157.546875 47.179688 C 157.601562 47.34375 157.703125 47.492188 157.742188 47.660156 C 157.875 48.140625 157.9375 48.632812 157.941406 49.128906 L 157.941406 193.867188 L 214.226562 161.40625 L 214.226562 87.414062 C 214.226562 86.921875 214.296875 86.421875 214.425781 85.949219 C 214.472656 85.78125 214.566406 85.632812 214.621094 85.472656 C 214.734375 85.175781 214.832031 84.871094 214.988281 84.597656 C 215.09375 84.414062 215.246094 84.265625 215.367188 84.097656 C 215.535156 83.875 215.675781 83.640625 215.871094 83.445312 C 216.035156 83.28125 216.238281 83.164062 216.421875 83.019531 C 216.632812 82.851562 216.816406 82.667969 217.039062 82.535156 L 217.046875 82.535156 L 284.601562 43.582031 C 285.472656 43.082031 286.410156 42.828125 287.414062 42.828125 C 288.417969 42.828125 289.355469 43.082031 290.226562 43.582031 L 357.773438 82.535156 C 358.011719 82.675781 358.195312 82.851562 358.40625 83.015625 C 358.582031 83.15625 358.785156 83.28125 358.945312 83.4375 C 359.144531 83.640625 359.285156 83.875 359.453125 84.097656 C 359.578125 84.265625 359.734375 84.414062 359.832031 84.597656 C 359.992188 84.871094 360.085938 85.175781 360.199219 85.472656 C 360.261719 85.632812 360.351562 85.78125 360.394531 85.949219 Z M 349.332031 161.40625 L 349.332031 97.171875 L 325.691406 110.800781 L 293.035156 129.632812 L 293.035156 193.867188 L 349.339844 161.40625 Z M 281.78125 277.601562 L 281.78125 213.324219 L 249.660156 231.699219 L 157.933594 284.132812 L 157.933594 349.015625 Z M 22.835938 58.882812 L 22.835938 277.601562 L 146.671875 349.007812 L 146.671875 284.140625 L 81.980469 247.46875 L 81.957031 247.457031 L 81.929688 247.441406 C 81.710938 247.316406 81.527344 247.132812 81.324219 246.976562 C 81.148438 246.835938 80.945312 246.722656 80.792969 246.570312 L 80.777344 246.546875 C 80.59375 246.371094 80.46875 246.152344 80.3125 245.957031 C 80.171875 245.765625 80.003906 245.605469 79.890625 245.40625 L 79.882812 245.386719 C 79.757812 245.175781 79.679688 244.921875 79.589844 244.683594 C 79.496094 244.46875 79.378906 244.273438 79.320312 244.046875 L 79.320312 244.042969 C 79.25 243.773438 79.238281 243.492188 79.210938 243.21875 C 79.179688 243.007812 79.125 242.796875 79.125 242.582031 L 79.125 91.34375 L 46.476562 72.503906 L 22.835938 58.886719 Z M 84.761719 16.683594 L 28.480469 49.128906 L 84.75 81.578125 L 141.023438 49.125 L 84.75 16.683594 Z M 114.03125 219.183594 L 146.679688 200.359375 L 146.679688 58.882812 L 123.042969 72.511719 L 90.386719 91.34375 L 90.386719 232.820312 Z M 287.414062 54.972656 L 231.140625 87.421875 L 287.414062 119.867188 L 343.679688 87.414062 Z M 281.78125 129.632812 L 249.125 110.800781 L 225.488281 97.171875 L 225.488281 161.40625 L 258.136719 180.230469 L 281.78125 193.867188 Z M 152.296875 274.382812 L 234.835938 227.1875 L 276.097656 203.601562 L 219.863281 171.175781 L 155.121094 208.511719 L 96.113281 242.535156 Z M 152.296875 274.382812 "/>
</g>
</g>
</svg>
